<svg xmlns="http://www.w3.org/2000/svg" width="33.191" height="33.191" viewBox="0 0 33.191 33.191"><defs><style>.cls-1{fill:#fff;}</style></defs><g id="Layer_2" data-name="Layer 2"><g id="Layer_1-2" data-name="Layer 1"><path class="cls-1" d="M16.573,0A16.381,16.381,0,0,1,33.191,16.626a16.423,16.423,0,0,1-16.6,16.565A16.6,16.6,0,0,1,16.573,0ZM30.182,16.622A13.46,13.46,0,0,0,16.667,3.008,13.65,13.65,0,0,0,3.008,16.538,13.715,13.715,0,0,0,16.58,30.18C23.376,30.252,30.359,24.511,30.182,16.622Z"/><path class="cls-1" d="M9.121,19.274H13.18a1.243,1.243,0,0,1,.118.285,2.816,2.816,0,0,0,2.456,2.583c1.62.311,3.086.042,3.969-1.44a7.732,7.732,0,0,0,.216-7.757c-.7-1.418-2.239-1.888-4.09-1.515a2.958,2.958,0,0,0-2.508,2.776l.99.083L11.191,17.3l-3.03-3.039h1c.069-.249.126-.431.17-.616A7.194,7.194,0,0,1,18,7.944a8.175,8.175,0,0,1,7,7.728,9.493,9.493,0,0,1-2,7.138,8.512,8.512,0,0,1-9.836,2.225A6.849,6.849,0,0,1,9.121,19.274Z"/></g></g></svg>