<svg xmlns="http://www.w3.org/2000/svg" width="33.201" height="33.194" viewBox="0 0 33.201 33.194"><defs><style>.cls-1{fill:#fff;}</style></defs><g id="Layer_2" data-name="Layer 2"><g id="Layer_1-2" data-name="Layer 1"><path class="cls-1" d="M16.654,0A16.377,16.377,0,0,1,33.2,16.685,16.522,16.522,0,0,1,16.526,33.194,16.7,16.7,0,0,1,0,16.559C-.035,8.134,7.03-.2,16.654,0ZM30.194,16.68A13.539,13.539,0,0,0,16.743,3C8.422,2.868,2.965,10.18,3,16.54A13.792,13.792,0,0,0,16.538,30.149C23.148,30.189,30.286,24.965,30.194,16.68Z"/><path class="cls-1" d="M16.4,13.862,14.326,14.94A7.272,7.272,0,0,0,13.2,13.929a1.834,1.834,0,0,0-2.736,1,8.753,8.753,0,0,0-.076,3.031,1.71,1.71,0,0,0,1.572,1.513,2.064,2.064,0,0,0,2.235-.957c.071-.114.148-.225.258-.39l1.932.981A4.731,4.731,0,0,1,11,21.655a4.521,4.521,0,0,1-3.825-4.6c-.148-2.765,1.1-4.778,3.363-5.424A5,5,0,0,1,16.4,13.862Z"/><path class="cls-1" d="M24.042,18.132l1.952.991a4.906,4.906,0,0,1-5.688,2.49c-2.178-.477-3.515-2.306-3.542-4.846-.029-2.68,1.277-4.612,3.493-5.167a4.845,4.845,0,0,1,5.7,2.266L23.93,14.942A7.256,7.256,0,0,0,22.8,13.929a1.872,1.872,0,0,0-2.792,1.05,7.827,7.827,0,0,0-.121,2.8,1.854,1.854,0,0,0,1.607,1.7C22.58,19.656,23.19,19.347,24.042,18.132Z"/></g></g></svg>