<svg xmlns="http://www.w3.org/2000/svg" width="33.191" height="33.191" viewBox="0 0 33.191 33.191"><defs><style>.cls-1{fill:#fff;}</style></defs><g id="Layer_2" data-name="Layer 2"><g id="Layer_1-2" data-name="Layer 1"><path class="cls-1" d="M16.615,0A16.6,16.6,0,1,1,0,16.45,16.588,16.588,0,0,1,16.615,0Zm0,30.336A13.741,13.741,0,1,0,2.855,16.592,13.77,13.77,0,0,0,16.613,30.336Z"/><path class="cls-1" d="M19.122,27.3H14.113V19.4l-1.522-.11v-3c0-1.145-.012-2.29.005-3.435.017-1.11.371-1.461,1.456-1.466,1.76-.007,3.519,0,5.278,0,.737,0,1.222.353,1.235,1.075.039,2.255.014,4.511.014,6.836l-1.457.082Z"/><path class="cls-1" d="M14.213,8.246a2.382,2.382,0,1,1,2.362,2.427A2.366,2.366,0,0,1,14.213,8.246Z"/></g></g></svg>