<svg xmlns="http://www.w3.org/2000/svg" width="236.257" height="326.996" viewBox="0 0 236.257 326.996"><defs><style>.cls-1{fill:#fff;}</style></defs><g id="Layer_2" data-name="Layer 2"><g id="Layer_1-2" data-name="Layer 1"><path class="cls-1" d="M39.155,142.872c9.4.72,24.163-1.662,34.16-3.565s35.346-10.716,47.481-15.114c.535-.194,1.119-.411,1.721-.646a58.871,58.871,0,0,1-7.117-12.26c-5.581-13.119-5.063-26.45,1.452-37.55.646-1.1,1.336-2.178,2.046-3.247C104.7,59.717,81.166,67.064,81.522,87.321c0,0-7.614,3.9-14.4,7.585A189.648,189.648,0,0,0,41.89,112.285C34.747,118.24,30.705,123,26.778,131.568S29.752,142.162,39.155,142.872Zm71.326-70.1L88.062,84.14C88.725,74.268,102.053,67.956,110.481,72.77Z"/><path class="cls-1" d="M124.626,125.842l.123-.046C124.632,125.825,124.626,125.842,124.626,125.842Z"/><path class="cls-1" d="M187.082,174.418c-2.437,0-10.44.723-11.073,10.031-.6,8.9.219,22.855.689,27.853.486,5.2,1.448,24.734,1.549,27.753a64.171,64.171,0,0,0,.593,7.67,3.816,3.816,0,0,0,.631.042h0c2.336,0,7.41-1.155,12.625-2.871l.406-.133c4.307-1.416,17.413-5.728,17.712-7.711.39-2.59.653-14.442.043-18.462-.333-2.2-.834-4.595-1.364-7.129-.36-1.718-.731-3.488-1.067-5.286-2.719-14.539-6.167-23.9-10.248-27.833A15.589,15.589,0,0,0,187.082,174.418Z"/><path class="cls-1" d="M233.432,194.756C226.1,164.4,209.25,151.188,209.25,151.188s6.6-6.249,4.282-12.138-12.28-13.847-56.317-18.4a18.8,18.8,0,0,0-1.458,6.133c44.562,3.769,46.083,15.06,33.674,21.016-10.947,5.25-41.418,8.032-80.514,7.858-38.681-.18-67.84-9.467-67.84-9.467H37.322a21.076,21.076,0,0,1-9.453-2.145c-4.041-1.77-5.359-6.784-5.359-6.784a8.171,8.171,0,0,0-.715,6.607c.813,2.289,6.7,7.678,6.7,7.678S8.777,166.358,3.4,196.974C-10.4,253.573,15.411,329.2,126.2,326.947,217.236,326.947,246.09,250.379,233.432,194.756ZM75.047,173.884c-8.313,30.308-8.557,63.217-8.794,95.039-.043,5.887-.089,11.974-.187,17.875a2.125,2.125,0,0,1-2.259,2.193c-.148.007-.3.014-.449.014a10.874,10.874,0,0,1-6.523-2.355,4.263,4.263,0,0,1-1.842-3.161c-.118-26.55.479-57.9,5.62-90.8-1.663,2.928-3.371,6.111-5.167,9.63-.979,1.919-2.169,3.9-3.32,5.81a48.008,48.008,0,0,0-3.979,7.473,2.685,2.685,0,0,1-2.014,1.662,10.023,10.023,0,0,1-3.055.2,12.6,12.6,0,0,1-3.19-.691,4.4,4.4,0,0,1-2.306-1.6l-.605-.562.063-.405a111.975,111.975,0,0,1-2.48-18.232l-.342-6.209c-.139-2.541-.276-5.053-.413-7.5-9.256,28.914-11.623,52.342-8.746,84.667a1.567,1.567,0,0,1-.33,1.292,1.7,1.7,0,0,1-1.64.476,9.826,9.826,0,0,1-2.886-1,12.793,12.793,0,0,1-2.92-2.008,4.8,4.8,0,0,1-1.7-2.62C10.948,224.54,15.7,196.443,32.519,162.8l.055-.093a2.742,2.742,0,0,1,2.273-1.022,13.087,13.087,0,0,1,2.7.15,11.28,11.28,0,0,1,2.6.735,3.3,3.3,0,0,1,1.694,1.463c.049.093.107.186.163.275a1.863,1.863,0,0,1,.35.823c.131,1.346.328,2.9.537,4.54.466,3.674,1,7.84,1.145,12.229.162,4.7,1.006,13.63,1.425,17.86.828-1.333,1.953-3.2,3-4.945,2.083-3.466,4.442-7.395,6.119-9.92a55.732,55.732,0,0,1,11.511-13,2.263,2.263,0,0,1,1.957-1.175,11.8,11.8,0,0,1,2.413-.04,11.426,11.426,0,0,1,2.512.514,3.764,3.764,0,0,1,1.845,1.211A1.2,1.2,0,0,1,75.047,173.884Zm17.178,7.758c-2.14,23.015-2.013,46.891-1.892,69.983.081,15.365.165,31.255-.422,46.722A2.626,2.626,0,0,1,87.9,300.9a6.058,6.058,0,0,1-1.823.272A7.923,7.923,0,0,1,84.445,301a8.619,8.619,0,0,1-3.354-1.525,3.854,3.854,0,0,1-1.7-3.17c.269-11.082.258-22.548.247-33.635-.027-27.153-.054-55.235,3.9-81.893.119-.606.548-1.35,1.966-1.656a9.375,9.375,0,0,1,2.7-.161,8.4,8.4,0,0,1,2.59.593A1.927,1.927,0,0,1,92.225,181.642Zm64.139,60.837c-.52,8.783-1.6,27.057-3.164,42.172-1.482,14.36-14.879,22.107-26.735,22.107h0c-8.927,0-16.282-4.152-19.676-11.1-2.561-5.244-3.18-10.233-3.962-16.552l-.027-.212c-2.517-20.31-2.718-59.233-.383-74.37a33.33,33.33,0,0,1,5.253-12.886c5.3-8.325,15.738-11.291,23.735-11.291,7.6,0,14.059,2.534,16.853,6.611,1.427,2.09,4.362,7.988,4.876,11.364.127.823-.465,1.518-1.761,2.058a16.037,16.037,0,0,1-3.033.894,16.584,16.584,0,0,1-3.119.313c-.6,0-2.259-.016-2.4-1.28-.143-1.3-1.553-6.434-2.107-8.209a8.182,8.182,0,0,0-2.354-3.7,8.867,8.867,0,0,0-4.291-1.966c-1.752-.363-4.151-.161-7.369.618a14.5,14.5,0,0,0-5.692,2.49c-1.165.927-4.713,3.747-7.405,16.47-1,4.727-1.092,18.55-1.147,26.808-.01,1.576-.02,2.935-.033,3.969-.424,31.322,1.573,50.144,6.1,57.544,1.51,2.468,4.747,3.94,8.663,3.937,6.185,0,13.5-3.8,14.943-12.16,1.362-7.882,3.534-37.548,3.659-47.606l.039-3.065c.08-6,.127-9.622-.229-16.187-.008-.155-.007-.338,0-.544.006-.523.019-1.317-.285-1.625a1.462,1.462,0,0,0-1.187-.177c-4.108.562-4.817,2.187-5.386,3.5a4.911,4.911,0,0,1-.759,1.348,5.64,5.64,0,0,1-4.367,1.961c-2.632,0-5.183-1.589-5.686-3.539-.98-3.756-.333-6.654,6.023-8.577a74.54,74.54,0,0,1,17.62-3.2,12.148,12.148,0,0,1,1.661-.128l.168,0c1.921.04,2.244,1.113,2.3,1.574A174.211,174.211,0,0,1,156.364,242.479Zm60.96,22.331a5.87,5.87,0,0,1-1.806,2.687,25.327,25.327,0,0,1-3.011,2.439,9.824,9.824,0,0,1-2.947,1.5,1.605,1.605,0,0,1-1.742-.412,1.689,1.689,0,0,1-.28-1.459,69.075,69.075,0,0,0,.924-7.288c.14-1.55.284-3.152.511-4.834a85.9,85.9,0,0,0,.549-10.7c-2.356.268-9.785,2.829-14.792,4.553l-1.962.676c-2.583.885-5.226,1.518-7.557,2.073-3.243.777-6.308,1.51-7.069,2.508-.536.7-.423,4.739-.34,7.685.059,2.089.12,4.25.034,6.023-.077,1.609-.149,3.242-.22,4.887-.141,3.26-.289,6.631-.488,9.883a4.623,4.623,0,0,1-1.789,3.076A16.734,16.734,0,0,1,172,290.384a8.675,8.675,0,0,1-3.526,1.077l-.167.007a2.023,2.023,0,0,1-1.53-.586,2.21,2.21,0,0,1-.527-1.707c.125-2.532.214-5.157.3-7.8.093-2.755.191-5.6.331-8.342.163-3.189.141-13.991.122-23.517-.013-6.35-.026-12.349.015-15.616.07-5.484-1.155-31.6-1.44-35.153a98.589,98.589,0,0,1,.1-11.452,22.041,22.041,0,0,1,1.92-8.161c3.426-7.348,10.654-11.562,19.83-11.562,8.017,0,15.859,3.349,19.071,8.143,8.257,12.317,14.906,39.684,14.906,54.13A163.138,163.138,0,0,1,217.324,264.81Z"/><path class="cls-1" d="M193.315,88.266c2-3.818,1.161-9.958-1.377-11.76-7.623,10.166-25.632,16.359-32.759,33.522C180.516,104.541,188.81,96.874,193.315,88.266Z"/><path class="cls-1" d="M154.355,19.545c9.577,12.322,9.272,26.805-.821,41.3-2.958,4.239-6.465,8.166-9.653,12.281-5.956,7.692-10.7,15.889-12.242,25.486-1.485,9.283,3.406,22.776,9.2,30.335.289.369.493.773,1.04,1.611-15.564-9.224-30.294-33.275-18.32-53.666,3.234-5.511,7.526-10.56,11.824-15.43,6.033-6.857,11.449-13.991,13.048-22.95,2.078-11.663-2.767-21.2-11.226-29.274C133.731,5.909,129.729,3.073,125.963,0,137.205,4.395,147.15,10.305,154.355,19.545Z"/><path class="cls-1" d="M175.578,28.189c6.038,10.645,6.252,21.7.026,32.283-3.519,6.013-8.431,11.137-12.779,16.6-3.478,4.368-7.461,8.35-10.481,13.028-8.544,13.192-9.91,26.987-2.625,41.281-9.641-9.689-15.807-20.927-12.991-35.751,1.791-9.366,7.223-16.517,13.641-22.925,3.156-3.159,6.595-6.028,9.591-9.349,13.179-14.6,13.981-31.017,2.259-46.615-2.462-3.274-5.357-6.2-8.029-9.3.03-.026.242-.22.306-.184C163.012,12.558,170.447,19.131,175.578,28.189Z"/><path class="cls-1" d="M196.776,46.324a34.579,34.579,0,0,1-9.227,26.9c-3.97,4.374-8.595,7.778-12.958,11.569-3.477,3.024-7.179,5.647-10.464,9-9.262,9.477-14.084,20.741-13.516,33.933-3.411-9.77-4.15-20.226,1.9-32.078,3.819-7.509,9.373-12.5,15.329-16.7,2.929-2.064,5.955-3.856,8.831-6.095,12.662-9.83,17.874-23.369,14.806-38.444-.653-3.171-1.657-6.132-2.5-9.173.029-.017.216-.148.245-.09A43.714,43.714,0,0,1,196.776,46.324Z"/></g></g></svg>